   <svg version="1.1" id="Layer_1" xmlns="http://www.w3.org/2000/svg" xmlns:xlink="http://www.w3.org/1999/xlink" x="0px" y="0px"
                                             viewBox="0 0 1000 1064.33" style="enable-background:new 0 0 1000 1064.33;" xml:space="preserve">
                                        <g>
                                            <defs>
                                                <rect id="SVGID_1_" x="2" width="997.184" height="1064.334"/>
                                            </defs>
                                            <clipPath id="SVGID_2_">
                                                <use xlink:href="#SVGID_1_"  style="overflow:visible;"/>
                                            </clipPath>
                                            
                                                <rect x="219.469" y="893.023" style="clip-path:url(#SVGID_2_);fill:none;stroke:#000000;stroke-width:3.1289;" width="105.35" height="167.4"/>
                                        </g>
                                        <line style="fill:none;stroke:#000000;stroke-width:3.1289;" x1="219.307" y1="1045.996" x2="324.782" y2="1045.996"/>
                                        <line style="fill:none;stroke:#000000;stroke-width:3.1289;" x1="217.905" y1="1053.036" x2="324.782" y2="1053.036"/>
                                        <line style="fill:none;stroke:#000000;stroke-width:3.1289;" x1="219.307" y1="1038.487" x2="324.782" y2="1038.487"/>
                                        <line style="fill:none;stroke:#000000;stroke-width:3.1289;" x1="219.288" y1="1031.303" x2="324.763" y2="1031.303"/>
                                        <line style="fill:none;stroke:#000000;stroke-width:3.1289;" x1="219.812" y1="1016.762" x2="325.288" y2="1016.762"/>
                                        <line style="fill:none;stroke:#000000;stroke-width:3.1289;" x1="218.587" y1="1024.032" x2="325.464" y2="1024.032"/>
                                        <line style="fill:none;stroke:#000000;stroke-width:3.1289;" x1="219.812" y1="1009.489" x2="325.288" y2="1009.489"/>
                                        <line style="fill:none;stroke:#000000;stroke-width:3.1289;" x1="219.812" y1="1002.219" x2="325.288" y2="1002.219"/>
                                        <line style="fill:none;stroke:#000000;stroke-width:3.1289;" x1="218.587" y1="987.676" x2="324.063" y2="987.676"/>
                                        <line style="fill:none;stroke:#000000;stroke-width:3.1289;" x1="219.812" y1="994.946" x2="325.482" y2="994.946"/>
                                        <line style="fill:none;stroke:#000000;stroke-width:3.1289;" x1="219.307" y1="980.405" x2="324.782" y2="980.405"/>
                                        <line style="fill:none;stroke:#000000;stroke-width:3.1289;" x1="219.307" y1="965.862" x2="324.782" y2="965.862"/>
                                        <line style="fill:none;stroke:#000000;stroke-width:3.1289;" x1="217.905" y1="973.133" x2="324.782" y2="973.133"/>
                                        <line style="fill:none;stroke:#000000;stroke-width:3.1289;" x1="218.587" y1="951.66" x2="324.062" y2="951.66"/>
                                        <line style="fill:none;stroke:#000000;stroke-width:3.1289;" x1="219.758" y1="944.151" x2="325.233" y2="944.151"/>
                                        <line style="fill:none;stroke:#000000;stroke-width:3.1289;" x1="219.312" y1="936.64" x2="325.68" y2="936.64"/>
                                        <line style="fill:none;stroke:#000000;stroke-width:3.1289;" x1="219.312" y1="929.131" x2="325.68" y2="929.131"/>
                                        <line style="fill:none;stroke:#000000;stroke-width:3.1289;" x1="220.019" y1="914.582" x2="326.387" y2="914.582"/>
                                        <line style="fill:none;stroke:#000000;stroke-width:3.1289;" x1="218.606" y1="921.622" x2="326.384" y2="921.622"/>
                                        <line style="fill:none;stroke:#000000;stroke-width:3.1289;" x1="220.019" y1="907.073" x2="326.387" y2="907.073"/>
                                        <line style="fill:none;stroke:#000000;stroke-width:3.1289;" x1="220.019" y1="899.564" x2="326.387" y2="899.564"/>
                                        <line style="fill:none;stroke:#000000;stroke-width:3.1289;" x1="219.307" y1="958.591" x2="324.782" y2="958.591"/>
                                        <g>
                                            <defs>
                                                <rect id="SVGID_3_" x="2" width="997.184" height="1064.334"/>
                                            </defs>
                                            <clipPath id="SVGID_4_">
                                                <use xlink:href="#SVGID_3_"  style="overflow:visible;"/>
                                            </clipPath>
                                            
                                                <rect x="3.564" y="1.564" style="clip-path:url(#SVGID_4_);fill:none;stroke:#000000;stroke-width:3.1289;" width="105.35" height="167.4"/>
                                            
                                                <line style="clip-path:url(#SVGID_4_);fill:none;stroke:#000000;stroke-width:3.1289;" x1="3.658" y1="84.589" x2="109.707" y2="84.589"/>
                                            <path style="clip-path:url(#SVGID_4_);" d="M138.993,170.529v-2.847h-11.045l3.285-2.941c2.168-1.962,3.808-3.652,4.912-5.069
                                                c1.752-2.275,2.628-4.349,2.628-6.227c0-2.024-0.742-3.567-2.222-4.631c-1.273-0.939-2.932-1.408-4.975-1.408
                                                c-2.168,0-3.952,0.532-5.35,1.596c-1.524,1.189-2.306,2.888-2.347,5.1h3.849c0-1.211,0.335-2.181,1.001-2.91
                                                c0.666-0.729,1.564-1.095,2.691-1.095c1.042,0,1.884,0.322,2.519,0.97c0.635,0.648,0.954,1.511,0.954,2.597
                                                c0,0.729-0.178,1.492-0.532,2.284c-0.648,1.461-2.262,3.451-4.85,5.976c-1.399,1.377-3.37,3.151-5.914,5.319v3.285H138.993z"/>
                                            
                                                <rect x="215.989" y="1.564" style="clip-path:url(#SVGID_4_);fill:none;stroke:#000000;stroke-width:3.1289;" width="105.35" height="167.4"/>
                                        </g>
                                        <line style="fill:none;stroke:#000000;stroke-width:3.1289;" x1="215.052" y1="57.672" x2="321.714" y2="57.672"/>
                                        <line style="fill:none;stroke:#000000;stroke-width:3.1289;" x1="215.955" y1="113.18" x2="322.638" y2="113.18"/>
                                        <g>
                                            <defs>
                                                <rect id="SVGID_5_" x="2" width="997.184" height="1064.334"/>
                                            </defs>
                                            <clipPath id="SVGID_6_">
                                                <use xlink:href="#SVGID_5_"  style="overflow:visible;"/>
                                            </clipPath>
                                            
                                                <rect x="638.671" y="1.564" style="clip-path:url(#SVGID_6_);fill:none;stroke:#000000;stroke-width:3.1289;" width="105.35" height="167.4"/>
                                        </g>
                                        <line style="fill:none;stroke:#000000;stroke-width:3.1289;" x1="637.649" y1="33.75" x2="742.343" y2="33.75"/>
                                        <line style="fill:none;stroke:#000000;stroke-width:3.1289;" x1="637.187" y1="69.658" x2="745.191" y2="69.658"/>
                                        <line style="fill:none;stroke:#000000;stroke-width:3.1289;" x1="637.187" y1="104.137" x2="745.003" y2="104.137"/>
                                        <line style="fill:none;stroke:#000000;stroke-width:3.1289;" x1="637.187" y1="137.901" x2="745.003" y2="137.901"/>
                                        <g>
                                            <defs>
                                                <rect id="SVGID_7_" x="2" width="997.184" height="1064.334"/>
                                            </defs>
                                            <clipPath id="SVGID_8_">
                                                <use xlink:href="#SVGID_7_"  style="overflow:visible;"/>
                                            </clipPath>
                                            
                                                <rect x="3.564" y="220.588" style="clip-path:url(#SVGID_8_);fill:none;stroke:#000000;stroke-width:3.1289;" width="105.35" height="167.4"/>
                                            
                                                <line style="clip-path:url(#SVGID_8_);fill:none;stroke:#000000;stroke-width:3.1289;" x1="3.471" y1="242.964" x2="108.771" y2="242.964"/>
                                            
                                                <line style="clip-path:url(#SVGID_8_);fill:none;stroke:#000000;stroke-width:3.1289;" x1="4.225" y1="267.132" x2="109.525" y2="267.132"/>
                                            
                                                <line style="clip-path:url(#SVGID_8_);fill:none;stroke:#000000;stroke-width:3.1289;" x1="3.471" y1="291.299" x2="108.771" y2="291.299"/>
                                            
                                                <line style="clip-path:url(#SVGID_8_);fill:none;stroke:#000000;stroke-width:3.1289;" x1="3.471" y1="315.468" x2="108.771" y2="315.468"/>
                                            
                                                <line style="clip-path:url(#SVGID_8_);fill:none;stroke:#000000;stroke-width:3.1289;" x1="3.579" y1="339.636" x2="108.769" y2="339.636"/>
                                            
                                                <line style="clip-path:url(#SVGID_8_);fill:none;stroke:#000000;stroke-width:3.1289;" x1="4.225" y1="363.804" x2="109.525" y2="363.804"/>
                                        </g>
                                        <line style="fill:none;stroke:#000000;stroke-width:3.1289;" x1="693.147" y1="219.806" x2="693.147" y2="389.602"/>
                                        <rect x="641.112" y="440.394" style="fill:none;stroke:#000000;stroke-width:3.1289;" width="105.35" height="167.4"/>
                                        <line style="fill:none;stroke:#000000;stroke-width:3.1289;" x1="639.546" y1="472.58" x2="748.026" y2="472.58"/>
                                        <line style="fill:none;stroke:#000000;stroke-width:3.1289;" x1="639.627" y1="508.488" x2="745.268" y2="508.488"/>
                                        <line style="fill:none;stroke:#000000;stroke-width:3.1289;" x1="639.627" y1="542.967" x2="747.443" y2="542.967"/>
                                        <line style="fill:none;stroke:#000000;stroke-width:3.1289;" x1="639.627" y1="576.731" x2="747.443" y2="576.731"/>
                                        <line style="fill:none;stroke:#000000;stroke-width:3.1289;" x1="676.433" y1="440.302" x2="676.433" y2="610.099"/>
                                        <line style="fill:none;stroke:#000000;stroke-width:3.1289;" x1="712.258" y1="440.302" x2="712.258" y2="607.886"/>
                                        <line style="fill:none;stroke:#000000;stroke-width:3.1289;" x1="901.599" y1="439.52" x2="901.599" y2="607.026"/>
                                        <rect x="848.893" y="439.612" style="fill:none;stroke:#000000;stroke-width:3.1289;" width="105.35" height="167.4"/>
                                        <line style="fill:none;stroke:#000000;stroke-width:3.1289;" x1="848.94" y1="523.035" x2="954.256" y2="523.035"/>
                                        <line style="fill:none;stroke:#000000;stroke-width:3.1289;" x1="848.94" y1="480.123" x2="954.256" y2="480.123"/>
                                        <line style="fill:none;stroke:#000000;stroke-width:3.1289;" x1="848.94" y1="564.938" x2="954.256" y2="564.938"/>
                                        <line style="fill:none;stroke:#000000;stroke-width:3.1289;" x1="874.284" y1="439.52" x2="874.284" y2="607.026"/>
                                        <line style="fill:none;stroke:#000000;stroke-width:3.1289;" x1="928.303" y1="439.52" x2="928.303" y2="607.026"/>
                                        <g>
                                            <defs>
                                                <rect id="SVGID_9_" x="2" width="997.184" height="1064.334"/>
                                            </defs>
                                            <clipPath id="SVGID_10_">
                                                <use xlink:href="#SVGID_9_"  style="overflow:visible;"/>
                                            </clipPath>
                                            
                                                <rect x="3.793" y="673.032" style="clip-path:url(#SVGID_10_);fill:none;stroke:#000000;stroke-width:3.1289;" width="105.35" height="167.4"/>
                                            
                                                <line style="clip-path:url(#SVGID_10_);fill:none;stroke:#000000;stroke-width:3.1289;" x1="4.888" y1="682.521" x2="107.641" y2="682.521"/>
                                            
                                                <line style="clip-path:url(#SVGID_10_);fill:none;stroke:#000000;stroke-width:3.1289;" x1="4.272" y1="693.113" x2="108.871" y2="693.113"/>
                                            
                                                <line style="clip-path:url(#SVGID_10_);fill:none;stroke:#000000;stroke-width:3.1289;" x1="4.272" y1="703.265" x2="108.596" y2="703.265"/>
                                            
                                                <line style="clip-path:url(#SVGID_10_);fill:none;stroke:#000000;stroke-width:3.1289;" x1="4.272" y1="713.201" x2="108.596" y2="713.201"/>
                                            
                                                <line style="clip-path:url(#SVGID_10_);fill:none;stroke:#000000;stroke-width:3.1289;" x1="5.446" y1="722.732" x2="108.199" y2="722.732"/>
                                            
                                                <line style="clip-path:url(#SVGID_10_);fill:none;stroke:#000000;stroke-width:3.1289;" x1="4.272" y1="731.931" x2="108.871" y2="731.931"/>
                                            
                                                <line style="clip-path:url(#SVGID_10_);fill:none;stroke:#000000;stroke-width:3.1289;" x1="4.272" y1="741.644" x2="108.596" y2="741.644"/>
                                            
                                                <line style="clip-path:url(#SVGID_10_);fill:none;stroke:#000000;stroke-width:3.1289;" x1="4.272" y1="751.145" x2="108.596" y2="751.145"/>
                                            
                                                <line style="clip-path:url(#SVGID_10_);fill:none;stroke:#000000;stroke-width:3.1289;" x1="4.888" y1="761.667" x2="108.871" y2="761.667"/>
                                            
                                                <line style="clip-path:url(#SVGID_10_);fill:none;stroke:#000000;stroke-width:3.1289;" x1="4.888" y1="771.94" x2="108.871" y2="771.94"/>
                                            
                                                <line style="clip-path:url(#SVGID_10_);fill:none;stroke:#000000;stroke-width:3.1289;" x1="4.888" y1="781.811" x2="108.871" y2="781.811"/>
                                            
                                                <line style="clip-path:url(#SVGID_10_);fill:none;stroke:#000000;stroke-width:3.1289;" x1="4.888" y1="792.084" x2="108.871" y2="792.084"/>
                                            
                                                <line style="clip-path:url(#SVGID_10_);fill:none;stroke:#000000;stroke-width:3.1289;" x1="4.888" y1="801.189" x2="108.871" y2="801.189"/>
                                            
                                                <line style="clip-path:url(#SVGID_10_);fill:none;stroke:#000000;stroke-width:3.1289;" x1="4.888" y1="811.46" x2="108.871" y2="811.46"/>
                                            
                                                <line style="clip-path:url(#SVGID_10_);fill:none;stroke:#000000;stroke-width:3.1289;" x1="4.888" y1="821.2" x2="108.871" y2="821.2"/>
                                            
                                                <line style="clip-path:url(#SVGID_10_);fill:none;stroke:#000000;stroke-width:3.1289;" x1="4.272" y1="830.941" x2="108.255" y2="830.941"/>
                                        </g>
                                        <rect x="430.192" y="675.842" style="fill:none;stroke:#000000;stroke-width:3.1289;" width="105.35" height="167.4"/>
                                        <line style="fill:none;stroke:#000000;stroke-width:3.1289;" x1="429.667" y1="683.945" x2="536.476" y2="683.945"/>
                                        <line style="fill:none;stroke:#000000;stroke-width:3.1289;" x1="429.08" y1="693.466" x2="535.676" y2="693.466"/>
                                        <line style="fill:none;stroke:#000000;stroke-width:3.1289;" x1="429.08" y1="702.595" x2="535.394" y2="702.595"/>
                                        <line style="fill:none;stroke:#000000;stroke-width:3.1289;" x1="429.08" y1="711.525" x2="535.394" y2="711.525"/>
                                        <line style="fill:none;stroke:#000000;stroke-width:3.1289;" x1="429.08" y1="720.093" x2="537.065" y2="720.093"/>
                                        <line style="fill:none;stroke:#000000;stroke-width:3.1289;" x1="429.667" y1="728.365" x2="536.263" y2="728.365"/>
                                        <line style="fill:none;stroke:#000000;stroke-width:3.1289;" x1="429.667" y1="737.095" x2="535.981" y2="737.095"/>
                                        <line style="fill:none;stroke:#000000;stroke-width:3.1289;" x1="429.667" y1="745.637" x2="535.981" y2="745.637"/>
                                        <line style="fill:none;stroke:#000000;stroke-width:3.1289;" x1="429.667" y1="755.097" x2="535.393" y2="755.097"/>
                                        <line style="fill:none;stroke:#000000;stroke-width:3.1289;" x1="429.667" y1="764.33" x2="535.393" y2="764.33"/>
                                        <line style="fill:none;stroke:#000000;stroke-width:3.1289;" x1="429.667" y1="773.206" x2="535.393" y2="773.206"/>
                                        <line style="fill:none;stroke:#000000;stroke-width:3.1289;" x1="429.667" y1="782.438" x2="535.393" y2="782.438"/>
                                        <line style="fill:none;stroke:#000000;stroke-width:3.1289;" x1="429.667" y1="790.626" x2="535.393" y2="790.626"/>
                                        <line style="fill:none;stroke:#000000;stroke-width:3.1289;" x1="429.667" y1="799.86" x2="535.393" y2="799.86"/>
                                        <line style="fill:none;stroke:#000000;stroke-width:3.1289;" x1="429.667" y1="808.616" x2="535.393" y2="808.616"/>
                                        <line style="fill:none;stroke:#000000;stroke-width:3.1289;" x1="429.667" y1="817.371" x2="535.981" y2="817.371"/>
                                        <line style="fill:none;stroke:#000000;stroke-width:3.1289;" x1="429.667" y1="826.743" x2="535.981" y2="826.743"/>
                                        <line style="fill:none;stroke:#000000;stroke-width:3.1289;" x1="429.667" y1="835.098" x2="535.981" y2="835.098"/>
                                        <g>
                                            <defs>
                                                <rect id="SVGID_11_" x="2" width="997.184" height="1064.334"/>
                                            </defs>
                                            <clipPath id="SVGID_12_">
                                                <use xlink:href="#SVGID_11_"  style="overflow:visible;"/>
                                            </clipPath>
                                            <path style="clip-path:url(#SVGID_12_);" d="M352.729,164.365c0-1.564-0.469-2.847-1.408-3.849
                                                c-0.854-0.939-2.043-1.543-3.567-1.815c1.292-0.291,2.337-0.876,3.129-1.752c0.876-0.939,1.314-2.065,1.314-3.379
                                                c0-1.899-0.713-3.401-2.143-4.506c-1.43-1.104-3.27-1.658-5.523-1.658c-2.043,0-3.786,0.51-5.225,1.533
                                                c-1.712,1.167-2.566,2.807-2.566,4.912h3.786c0.228-2.566,1.533-3.849,3.911-3.849c1.23,0,2.212,0.344,2.941,1.033
                                                s1.095,1.618,1.095,2.785c0,1.273-0.491,2.253-1.471,2.941c-0.835,0.585-1.899,0.876-3.191,0.876c-0.688,0-1.126-0.009-1.314-0.031
                                                v2.534c0.166-0.022,0.573-0.031,1.22-0.031c1.417,0,2.588,0.282,3.504,0.845c1.104,0.688,1.658,1.721,1.658,3.098
                                                c0,1.292-0.416,2.325-1.252,3.098s-1.899,1.158-3.191,1.158c-1.252,0-2.268-0.36-3.051-1.079c-0.782-0.72-1.183-1.705-1.205-2.957
                                                h-3.817c0,2.212,0.792,3.902,2.378,5.069c1.417,1.042,3.295,1.564,5.632,1.564c2.231,0,4.108-0.491,5.632-1.471
                                                C351.821,168.267,352.729,166.577,352.729,164.365"/>
                                        </g>
                                        <path d="M557.292,162.801h-7.509l7.509-11.421V162.801z M564.332,165.46l-0.031-2.66h-3.473v-14.894h-4.38l-9.512,14.174v3.379
                                            h10.325v5.069h3.598v-5.069H564.332z"/>
                                        <g>
                                            <defs>
                                                <rect id="SVGID_13_" x="2" width="997.184" height="1064.334"/>
                                            </defs>
                                            <clipPath id="SVGID_14_">
                                                <use xlink:href="#SVGID_13_"  style="overflow:visible;"/>
                                            </clipPath>
                                            
                                                <rect x="426.9" y="1.564" style="clip-path:url(#SVGID_14_);fill:none;stroke:#000000;stroke-width:3.1289;" width="105.35" height="167.4"/>
                                        </g>
                                        <line style="fill:none;stroke:#000000;stroke-width:3.1289;" x1="426.994" y1="84.589" x2="533.042" y2="84.589"/>
                                        <g>
                                            <defs>
                                                <rect id="SVGID_15_" x="2" width="997.184" height="1064.334"/>
                                            </defs>
                                            <clipPath id="SVGID_16_">
                                                <use xlink:href="#SVGID_15_"  style="overflow:visible;"/>
                                            </clipPath>
                                            
                                                <line style="clip-path:url(#SVGID_16_);fill:none;stroke:#000000;stroke-width:3.1289;" x1="479.576" y1="169.176" x2="479.576" y2="2.221"/>
                                            <path style="clip-path:url(#SVGID_16_);" d="M775.395,163.217c0-2.212-0.604-4.021-1.815-5.429
                                                c-1.211-1.408-2.869-2.112-4.975-2.112c-1.148,0-2.096,0.197-2.847,0.594c-0.667,0.354-1.324,0.939-1.971,1.752l0.344-7.197h10.075
                                                v-2.691H760.69l-0.501,13.141h3.786c0.188-0.917,0.626-1.643,1.314-2.175c0.688-0.532,1.48-0.798,2.378-0.798
                                                c1.273,0,2.262,0.501,2.972,1.502c0.626,0.876,0.939,2.012,0.939,3.41c0,1.48-0.335,2.7-1.001,3.661
                                                c-0.751,1.086-1.805,1.627-3.16,1.627c-1.126,0-2.018-0.307-2.675-0.923c-0.657-0.616-1.007-1.486-1.048-2.613h-3.849
                                                c0,4.13,2.556,6.195,7.666,6.195c2.462,0,4.421-0.813,5.882-2.441C774.729,167.244,775.395,165.407,775.395,163.217"/>
                                            <path style="clip-path:url(#SVGID_16_);" d="M984.062,163.145c0,1.439-0.354,2.628-1.064,3.567
                                                c-0.751,1.023-1.793,1.533-3.129,1.533c-1.292,0-2.337-0.501-3.129-1.502c-0.729-0.939-1.095-2.106-1.095-3.504
                                                c0-1.461,0.391-2.675,1.173-3.645c0.782-0.97,1.852-1.455,3.207-1.455c1.314,0,2.337,0.501,3.066,1.502
                                                C983.74,160.538,984.062,161.705,984.062,163.145 M987.661,163.02c0-2.19-0.62-3.98-1.862-5.366
                                                c-1.242-1.386-2.916-2.081-5.022-2.081c-2.544,0-4.412,1.073-5.601,3.223c0-2.356,0.313-4.296,0.939-5.82
                                                c0.813-1.981,2.096-2.972,3.849-2.972c2.15,0,3.307,1.126,3.473,3.379h3.723c-0.084-1.981-0.854-3.514-2.315-4.6
                                                c-1.273-0.917-2.869-1.377-4.787-1.377c-3.066,0-5.319,1.292-6.758,3.88c-1.167,2.087-1.752,4.828-1.752,8.229
                                                c0,3.317,0.585,5.945,1.752,7.885c1.417,2.337,3.639,3.504,6.665,3.504c2.212,0,4.046-0.745,5.507-2.237
                                                C986.932,167.175,987.661,165.294,987.661,163.02"/>
                                        </g>
                                        <polygon points="134.733,370.028 134.733,366.931 119.433,366.931 119.433,369.809 131.166,369.809 122.03,389.553 126.348,389.553 
                                            "/>
                                        <g>
                                            <defs>
                                                <rect id="SVGID_17_" x="2" width="997.184" height="1064.334"/>
                                            </defs>
                                            <clipPath id="SVGID_18_">
                                                <use xlink:href="#SVGID_17_"  style="overflow:visible;"/>
                                            </clipPath>
                                            
                                                <rect x="850.186" y="1.564" style="clip-path:url(#SVGID_18_);fill:none;stroke:#000000;stroke-width:3.1289;" width="105.351" height="167.4"/>
                                        </g>
                                        <line style="fill:none;stroke:#000000;stroke-width:3.1289;" x1="849.248" y1="57.674" x2="955.909" y2="57.674"/>
                                        <line style="fill:none;stroke:#000000;stroke-width:3.1289;" x1="850.151" y1="113.18" x2="956.834" y2="113.18"/>
                                        <g>
                                            <defs>
                                                <rect id="SVGID_19_" x="2" width="997.184" height="1064.334"/>
                                            </defs>
                                            <clipPath id="SVGID_20_">
                                                <use xlink:href="#SVGID_19_"  style="overflow:visible;"/>
                                            </clipPath>
                                            
                                                <line style="clip-path:url(#SVGID_20_);fill:none;stroke:#000000;stroke-width:3.1289;" x1="902.457" y1="169.176" x2="902.457" y2="2.221"/>
                                            <path style="clip-path:url(#SVGID_20_);" d="M349.794,383.107c0,1.292-0.454,2.337-1.361,3.129
                                                c-0.907,0.792-1.987,1.189-3.238,1.189c-1.252,0-2.309-0.391-3.176-1.173c-0.867-0.782-1.298-1.83-1.298-3.145
                                                c0-1.292,0.447-2.315,1.345-3.066c0.814-0.688,1.855-1.033,3.129-1.033c1.314,0,2.387,0.335,3.223,1.001
                                                C349.334,380.761,349.794,381.793,349.794,383.107 M349.418,372.751c0,1.148-0.407,2.059-1.22,2.738s-1.783,1.017-2.91,1.017
                                                c-1.189,0-2.159-0.303-2.91-0.907c-0.835-0.667-1.252-1.605-1.252-2.816c0-1.211,0.416-2.181,1.252-2.91
                                                c0.792-0.666,1.774-1.001,2.941-1.001c1.148,0,2.118,0.35,2.91,1.048C349.021,370.617,349.418,371.562,349.418,372.751
                                                 M353.455,383.232c0-1.502-0.469-2.753-1.408-3.755c-0.854-0.917-2.012-1.511-3.473-1.783c2.919-0.773,4.38-2.534,4.38-5.288
                                                c0-2.003-0.835-3.536-2.503-4.6c-1.399-0.917-3.12-1.377-5.163-1.377c-2.087,0-3.839,0.479-5.257,1.439
                                                c-1.649,1.104-2.472,2.691-2.472,4.756c0,1.377,0.429,2.513,1.283,3.411c0.773,0.835,1.824,1.399,3.16,1.69
                                                c-3.317,0.792-4.975,2.713-4.975,5.757c0,2.212,0.898,3.889,2.691,5.038c1.502,0.939,3.379,1.408,5.632,1.408
                                                c2.212,0,4.058-0.523,5.538-1.564C352.601,387.153,353.455,385.445,353.455,383.232"/>
                                        </g>
                                        <rect x="215.989" y="220.588" style="fill:none;stroke:#000000;stroke-width:3.1289;" width="105.35" height="167.4"/>
                                        <line style="fill:none;stroke:#000000;stroke-width:3.1289;" x1="215.641" y1="304.289" x2="321.689" y2="304.289"/>
                                        <line style="fill:none;stroke:#000000;stroke-width:3.1289;" x1="268.665" y1="388.2" x2="268.665" y2="221.245"/>
                                        <line style="fill:none;stroke:#000000;stroke-width:3.1289;" x1="216.858" y1="345.746" x2="322.906" y2="345.746"/>
                                        <line style="fill:none;stroke:#000000;stroke-width:3.1289;" x1="215.642" y1="261.954" x2="321.69" y2="261.954"/>
                                        <g>
                                            <defs>
                                                <rect id="SVGID_21_" x="2" width="997.184" height="1064.334"/>
                                            </defs>
                                            <clipPath id="SVGID_22_">
                                                <use xlink:href="#SVGID_21_"  style="overflow:visible;"/>
                                            </clipPath>
                                            <path style="clip-path:url(#SVGID_22_);" d="M562.708,373.783c0,1.399-0.401,2.534-1.205,3.411
                                                c-0.804,0.876-1.871,1.314-3.207,1.314c-1.273,0-2.284-0.46-3.035-1.377c-0.71-0.854-1.064-1.962-1.064-3.317
                                                c0-1.355,0.397-2.481,1.189-3.379s1.837-1.345,3.129-1.345c1.252,0,2.262,0.447,3.035,1.345
                                                C562.323,371.333,562.708,372.447,562.708,373.783 M566.65,377.506c0-7.384-2.732-11.076-8.198-11.076
                                                c-2.231,0-4.077,0.657-5.538,1.971c-1.543,1.377-2.315,3.213-2.315,5.507c0,2.128,0.651,3.858,1.956,5.194
                                                c1.305,1.336,2.988,2.003,5.053,2.003c2.4,0,4.224-0.961,5.476-2.879c-0.041,1.167-0.094,2.074-0.156,2.722
                                                c-0.21,2.003-0.532,3.432-0.97,4.287c-0.729,1.399-1.962,2.096-3.692,2.096c-1.042,0-1.909-0.303-2.597-0.907
                                                c-0.688-0.604-1.054-1.461-1.095-2.566h-3.755c0.125,2.106,0.907,3.692,2.347,4.756c1.292,0.917,2.982,1.377,5.069,1.377
                                                C563.843,389.991,566.65,385.829,566.65,377.506"/>
                                            <path style="clip-path:url(#SVGID_22_);" d="M787.649,379.071c0,5.967-1.471,8.949-4.412,8.949c-2.794,0-4.193-2.972-4.193-8.917
                                                c0-6.155,1.461-9.23,4.38-9.23C786.241,369.872,787.649,372.938,787.649,379.071 M791.435,378.789c0-3.254-0.541-5.86-1.627-7.822
                                                c-1.377-2.503-3.514-3.755-6.414-3.755c-2.879,0-5.028,1.242-6.446,3.723c-1.167,2.024-1.752,4.621-1.752,7.791
                                                c0,3.339,0.532,6.029,1.596,8.073c1.355,2.606,3.514,3.911,6.477,3.911c2.941,0,5.11-1.292,6.508-3.88
                                                C790.881,384.766,791.435,382.084,791.435,378.789 M767.468,390.335v-22.622h-3.223c-1.73,1.649-3.576,2.838-5.538,3.567v3.129
                                                c2.024-0.814,3.701-1.837,5.038-3.066v18.992H767.468z"/>
                                        </g>
                                        <rect x="849.948" y="221.371" style="fill:none;stroke:#000000;stroke-width:3.1289;" width="105.351" height="167.4"/>
                                        <line style="fill:none;stroke:#000000;stroke-width:3.1289;" x1="849.74" y1="236.358" x2="955.184" y2="236.358"/>
                                        <line style="fill:none;stroke:#000000;stroke-width:3.1289;" x1="849.901" y1="251.879" x2="955.345" y2="251.879"/>
                                        <line style="fill:none;stroke:#000000;stroke-width:3.1289;" x1="849.821" y1="267.398" x2="955.265" y2="267.398"/>
                                        <line style="fill:none;stroke:#000000;stroke-width:3.1289;" x1="849.982" y1="282.917" x2="955.427" y2="282.917"/>
                                        <line style="fill:none;stroke:#000000;stroke-width:3.1289;" x1="849.821" y1="297.312" x2="955.265" y2="297.312"/>
                                        <line style="fill:none;stroke:#000000;stroke-width:3.1289;" x1="849.982" y1="312.831" x2="955.427" y2="312.831"/>
                                        <line style="fill:none;stroke:#000000;stroke-width:3.1289;" x1="849.659" y1="328.351" x2="955.103" y2="328.351"/>
                                        <line style="fill:none;stroke:#000000;stroke-width:3.1289;" x1="849.821" y1="343.87" x2="955.265" y2="343.87"/>
                                        <line style="fill:none;stroke:#000000;stroke-width:3.1289;" x1="849.659" y1="358.385" x2="955.103" y2="358.385"/>
                                        <line style="fill:none;stroke:#000000;stroke-width:3.1289;" x1="849.821" y1="373.906" x2="955.265" y2="373.906"/>
                                        <g>
                                            <defs>
                                                <rect id="SVGID_23_" x="2" width="997.184" height="1064.334"/>
                                            </defs>
                                            <clipPath id="SVGID_24_">
                                                <use xlink:href="#SVGID_23_"  style="overflow:visible;"/>
                                            </clipPath>
                                            <path style="clip-path:url(#SVGID_24_);" d="M996.343,389.553v-22.622h-3.223c-1.73,1.649-3.576,2.838-5.538,3.567v3.129
                                                c2.024-0.814,3.701-1.837,5.038-3.066v18.992H996.343z M976.944,389.553v-22.622h-3.223c-1.73,1.649-3.576,2.838-5.538,3.567v3.129
                                                c2.024-0.814,3.702-1.837,5.038-3.066v18.992H976.944z"/>
                                            <path style="clip-path:url(#SVGID_24_);" d="M153.275,608.577v-2.847H142.23l3.285-2.941c2.168-1.962,3.808-3.651,4.912-5.069
                                                c1.752-2.275,2.628-4.349,2.628-6.227c0-2.024-0.742-3.567-2.222-4.631c-1.273-0.939-2.932-1.408-4.975-1.408
                                                c-2.168,0-3.952,0.532-5.35,1.596c-1.524,1.189-2.306,2.888-2.347,5.1h3.849c0-1.211,0.335-2.181,1.001-2.91
                                                c0.666-0.729,1.564-1.095,2.691-1.095c1.042,0,1.884,0.322,2.519,0.97c0.635,0.648,0.954,1.511,0.954,2.597
                                                c0,0.729-0.178,1.492-0.532,2.284c-0.648,1.461-2.262,3.451-4.85,5.976c-1.399,1.377-3.37,3.151-5.914,5.319v3.285H153.275z
                                                 M129.808,608.577v-22.622h-3.223c-1.73,1.649-3.576,2.838-5.538,3.567v3.129c2.024-0.813,3.702-1.837,5.038-3.066v18.992H129.808z
                                                "/>
                                            
                                                <rect x="3.564" y="439.612" style="clip-path:url(#SVGID_24_);fill:none;stroke:#000000;stroke-width:3.1289;" width="105.35" height="167.4"/>
                                            
                                                <line style="clip-path:url(#SVGID_24_);fill:none;stroke:#000000;stroke-width:3.1289;" x1="2.627" y1="495.72" x2="109.288" y2="495.72"/>
                                            
                                                <line style="clip-path:url(#SVGID_24_);fill:none;stroke:#000000;stroke-width:3.1289;" x1="3.53" y1="551.227" x2="110.213" y2="551.227"/>
                                        </g>
                                        <line style="fill:none;stroke:#000000;stroke-width:3.1289;" x1="56.241" y1="439.77" x2="56.241" y2="606.854"/>
                                        <line style="fill:none;stroke:#000000;stroke-width:3.1289;" x1="29.867" y1="439.77" x2="29.867" y2="606.854"/>
                                        <line style="fill:none;stroke:#000000;stroke-width:3.1289;" x1="82.615" y1="440.552" x2="82.615" y2="607.636"/>
                                        <g>
                                            <defs>
                                                <rect id="SVGID_25_" x="2" width="997.184" height="1064.334"/>
                                            </defs>
                                            <clipPath id="SVGID_26_">
                                                <use xlink:href="#SVGID_25_"  style="overflow:visible;"/>
                                            </clipPath>
                                            <path style="clip-path:url(#SVGID_26_);" d="M365.704,602.413c0-1.564-0.469-2.847-1.408-3.849
                                                c-0.854-0.939-2.043-1.543-3.567-1.815c1.292-0.291,2.337-0.876,3.129-1.752c0.876-0.939,1.314-2.065,1.314-3.379
                                                c0-1.899-0.713-3.401-2.143-4.506c-1.43-1.105-3.27-1.658-5.523-1.658c-2.043,0-3.786,0.51-5.225,1.533
                                                c-1.712,1.167-2.566,2.807-2.566,4.912h3.786c0.228-2.566,1.533-3.849,3.911-3.849c1.23,0,2.212,0.344,2.941,1.033
                                                c0.729,0.688,1.095,1.618,1.095,2.785c0,1.273-0.491,2.253-1.471,2.941c-0.835,0.585-1.899,0.876-3.192,0.876
                                                c-0.688,0-1.126-0.009-1.314-0.031v2.534c0.166-0.022,0.573-0.031,1.22-0.031c1.417,0,2.588,0.282,3.504,0.845
                                                c1.104,0.688,1.658,1.721,1.658,3.098c0,1.292-0.416,2.325-1.252,3.098s-1.899,1.158-3.191,1.158c-1.252,0-2.268-0.36-3.051-1.079
                                                c-0.782-0.72-1.183-1.705-1.205-2.957h-3.817c0,2.212,0.792,3.902,2.378,5.069c1.417,1.042,3.295,1.564,5.632,1.564
                                                c2.231,0,4.108-0.491,5.632-1.471C364.797,606.314,365.704,604.625,365.704,602.413 M341.768,608.577v-22.622h-3.223
                                                c-1.73,1.649-3.576,2.838-5.538,3.567v3.129c2.024-0.813,3.702-1.837,5.038-3.066v18.992H341.768z"/>
                                        </g>
                                        <rect x="215.404" y="439.612" style="fill:none;stroke:#000000;stroke-width:3.1289;" width="105.35" height="167.4"/>
                                        <line style="fill:none;stroke:#000000;stroke-width:3.1289;" x1="215.265" y1="593.712" x2="321.689" y2="593.712"/>
                                        <line style="fill:none;stroke:#000000;stroke-width:3.1289;" x1="213.84" y1="581.32" x2="320.264" y2="581.32"/>
                                        <line style="fill:none;stroke:#000000;stroke-width:3.1289;" x1="214.868" y1="568.336" x2="321.292" y2="568.336"/>
                                        <line style="fill:none;stroke:#000000;stroke-width:3.1289;" x1="214.868" y1="555.351" x2="321.292" y2="555.351"/>
                                        <line style="fill:none;stroke:#000000;stroke-width:3.1289;" x1="214.868" y1="542.366" x2="321.292" y2="542.366"/>
                                        <line style="fill:none;stroke:#000000;stroke-width:3.1289;" x1="214.868" y1="529.382" x2="321.292" y2="529.382"/>
                                        <line style="fill:none;stroke:#000000;stroke-width:3.1289;" x1="214.868" y1="516.395" x2="321.292" y2="516.395"/>
                                        <line style="fill:none;stroke:#000000;stroke-width:3.1289;" x1="214.868" y1="503.709" x2="321.292" y2="503.709"/>
                                        <line style="fill:none;stroke:#000000;stroke-width:3.1289;" x1="214.868" y1="490.872" x2="321.292" y2="490.872"/>
                                        <line style="fill:none;stroke:#000000;stroke-width:3.1289;" x1="214.472" y1="478.036" x2="320.895" y2="478.036"/>
                                        <line style="fill:none;stroke:#000000;stroke-width:3.1289;" x1="214.472" y1="465.051" x2="320.895" y2="465.051"/>
                                        <line style="fill:none;stroke:#000000;stroke-width:3.1289;" x1="214.472" y1="452.066" x2="320.895" y2="452.066"/>
                                        <g>
                                            <defs>
                                                <rect id="SVGID_27_" x="2" width="997.184" height="1064.334"/>
                                            </defs>
                                            <clipPath id="SVGID_28_">
                                                <use xlink:href="#SVGID_27_"  style="overflow:visible;"/>
                                            </clipPath>
                                            <path style="clip-path:url(#SVGID_28_);" d="M575.405,600.117h-7.509l7.509-11.421V600.117z M582.445,602.776l-0.031-2.66h-3.473
                                                v-14.894h-4.38l-9.512,14.174v3.379h10.325v5.069h3.598v-5.069H582.445z M557.664,607.845v-22.622h-3.223
                                                c-1.73,1.649-3.576,2.838-5.538,3.567v3.129c2.024-0.814,3.701-1.837,5.038-3.066v18.992H557.664z"/>
                                        </g>
                                        <rect x="430.667" y="439.65" style="fill:none;stroke:#000000;stroke-width:3.1289;" width="105.35" height="167.4"/>
                                        <line style="fill:none;stroke:#000000;stroke-width:3.1289;" x1="430.575" y1="462.025" x2="535.875" y2="462.025"/>
                                        <line style="fill:none;stroke:#000000;stroke-width:3.1289;" x1="431.329" y1="486.193" x2="536.629" y2="486.193"/>
                                        <line style="fill:none;stroke:#000000;stroke-width:3.1289;" x1="430.574" y1="510.361" x2="535.875" y2="510.361"/>
                                        <line style="fill:none;stroke:#000000;stroke-width:3.1289;" x1="430.575" y1="534.529" x2="535.875" y2="534.529"/>
                                        <line style="fill:none;stroke:#000000;stroke-width:3.1289;" x1="430.682" y1="558.697" x2="535.873" y2="558.697"/>
                                        <line style="fill:none;stroke:#000000;stroke-width:3.1289;" x1="431.329" y1="582.865" x2="536.629" y2="582.865"/>
                                        <line style="fill:none;stroke:#000000;stroke-width:3.1289;" x1="483.344" y1="438.047" x2="483.344" y2="607.844"/>
                                        <line style="fill:none;stroke:#000000;stroke-width:3.1289;" x1="464.883" y1="220.4" x2="464.883" y2="387.985"/>
                                        <line style="fill:none;stroke:#000000;stroke-width:3.1289;" x1="500.71" y1="221.026" x2="500.71" y2="387.957"/>
                                        <rect x="429.56" y="220.588" style="fill:none;stroke:#000000;stroke-width:3.1289;" width="105.35" height="167.4"/>
                                        <line style="fill:none;stroke:#000000;stroke-width:3.1289;" x1="428.623" y1="276.696" x2="535.285" y2="276.696"/>
                                        <line style="fill:none;stroke:#000000;stroke-width:3.1289;" x1="429.527" y1="332.204" x2="536.21" y2="332.204"/>
                                        <rect x="640.473" y="220.588" style="fill:none;stroke:#000000;stroke-width:3.1289;" width="105.35" height="167.4"/>
                                        <line style="fill:none;stroke:#000000;stroke-width:3.1289;" x1="639.45" y1="252.774" x2="744.144" y2="252.774"/>
                                        <line style="fill:none;stroke:#000000;stroke-width:3.1289;" x1="638.988" y1="288.682" x2="746.992" y2="288.682"/>
                                        <line style="fill:none;stroke:#000000;stroke-width:3.1289;" x1="638.988" y1="323.161" x2="746.804" y2="323.161"/>
                                        <line style="fill:none;stroke:#000000;stroke-width:3.1289;" x1="638.988" y1="356.925" x2="746.804" y2="356.925"/>
                                        <g>
                                            <defs>
                                                <rect id="SVGID_29_" x="2" width="997.184" height="1064.334"/>
                                            </defs>
                                            <clipPath id="SVGID_30_">
                                                <use xlink:href="#SVGID_29_"  style="overflow:visible;"/>
                                            </clipPath>
                                            <path style="clip-path:url(#SVGID_30_);" d="M790.474,601.818c0-2.212-0.604-4.021-1.815-5.429s-2.869-2.112-4.975-2.112
                                                c-1.148,0-2.096,0.197-2.847,0.595c-0.666,0.354-1.323,0.939-1.971,1.752l0.344-7.197h10.075v-2.691h-13.517l-0.501,13.141h3.786
                                                c0.188-0.917,0.626-1.643,1.314-2.175s1.48-0.798,2.378-0.798c1.273,0,2.262,0.501,2.972,1.502
                                                c0.626,0.876,0.939,2.012,0.939,3.411c0,1.48-0.335,2.7-1.001,3.661c-0.751,1.086-1.805,1.627-3.16,1.627
                                                c-1.126,0-2.018-0.307-2.675-0.923c-0.657-0.616-1.008-1.486-1.048-2.613h-3.849c0,4.13,2.556,6.195,7.666,6.195
                                                c2.462,0,4.421-0.814,5.882-2.441C789.808,605.845,790.474,604.008,790.474,601.818 M766.601,609.359v-22.622h-3.223
                                                c-1.73,1.649-3.576,2.838-5.538,3.567v3.129c2.024-0.813,3.701-1.837,5.038-3.066v18.992H766.601z"/>
                                            <path style="clip-path:url(#SVGID_30_);" d="M992.736,601.192c0,1.439-0.354,2.628-1.064,3.567
                                                c-0.751,1.023-1.793,1.533-3.129,1.533c-1.292,0-2.337-0.501-3.129-1.502c-0.729-0.939-1.095-2.106-1.095-3.504
                                                c0-1.461,0.391-2.675,1.173-3.645c0.782-0.97,1.852-1.455,3.207-1.455c1.314,0,2.337,0.501,3.066,1.502
                                                C992.414,598.586,992.736,599.753,992.736,601.192 M996.334,601.067c0-2.19-0.62-3.98-1.862-5.366
                                                c-1.242-1.386-2.916-2.081-5.022-2.081c-2.544,0-4.412,1.073-5.601,3.223c0-2.356,0.313-4.296,0.939-5.82
                                                c0.814-1.981,2.096-2.972,3.849-2.972c2.15,0,3.307,1.126,3.473,3.379h3.723c-0.085-1.981-0.854-3.514-2.315-4.599
                                                c-1.273-0.917-2.869-1.377-4.787-1.377c-3.066,0-5.319,1.292-6.758,3.88c-1.167,2.087-1.752,4.828-1.752,8.229
                                                c0,3.317,0.585,5.945,1.752,7.885c1.417,2.337,3.639,3.504,6.665,3.504c2.212,0,4.046-0.745,5.507-2.237
                                                C995.605,605.222,996.334,603.342,996.334,601.067 M972.211,608.577v-22.622h-3.223c-1.73,1.649-3.576,2.838-5.538,3.567v3.129
                                                c2.024-0.813,3.702-1.837,5.038-3.066v18.992H972.211z"/>
                                            <path style="clip-path:url(#SVGID_30_);" d="M154.129,822.471v-3.098h-15.3v2.879h11.733l-9.136,19.743h4.318L154.129,822.471z
                                                 M130.788,841.995v-22.622h-3.223c-1.73,1.649-3.576,2.838-5.538,3.567v3.129c2.024-0.814,3.702-1.837,5.038-3.066v18.992H130.788z
                                                "/>
                                            <path style="clip-path:url(#SVGID_30_);" d="M366.346,835.22c0,1.292-0.454,2.337-1.361,3.129
                                                c-0.907,0.792-1.987,1.189-3.238,1.189c-1.252,0-2.309-0.391-3.176-1.173c-0.867-0.782-1.298-1.83-1.298-3.145
                                                c0-1.292,0.447-2.315,1.345-3.066c0.814-0.688,1.855-1.033,3.129-1.033c1.314,0,2.387,0.335,3.223,1.001
                                                C365.886,832.874,366.346,833.906,366.346,835.22 M365.97,824.864c0,1.148-0.407,2.059-1.22,2.738
                                                c-0.813,0.679-1.783,1.017-2.91,1.017c-1.189,0-2.159-0.303-2.91-0.907c-0.835-0.666-1.252-1.605-1.252-2.816
                                                s0.416-2.181,1.252-2.91c0.792-0.667,1.774-1.001,2.941-1.001c1.148,0,2.118,0.35,2.91,1.048
                                                C365.573,822.73,365.97,823.675,365.97,824.864 M370.006,835.345c0-1.502-0.469-2.753-1.408-3.755
                                                c-0.854-0.917-2.012-1.511-3.473-1.783c2.919-0.773,4.38-2.534,4.38-5.288c0-2.003-0.835-3.536-2.503-4.599
                                                c-1.399-0.917-3.12-1.377-5.163-1.377c-2.087,0-3.839,0.479-5.257,1.439c-1.649,1.104-2.472,2.691-2.472,4.756
                                                c0,1.377,0.429,2.513,1.283,3.411c0.773,0.835,1.824,1.399,3.16,1.69c-3.317,0.792-4.975,2.713-4.975,5.757
                                                c0,2.212,0.898,3.889,2.691,5.038c1.502,0.939,3.379,1.408,5.632,1.408c2.212,0,4.058-0.523,5.538-1.564
                                                C369.152,839.266,370.006,837.558,370.006,835.345 M345.945,841.666v-22.622h-3.223c-1.73,1.649-3.576,2.838-5.538,3.567v3.129
                                                c2.024-0.813,3.702-1.837,5.038-3.066v18.992H345.945z"/>
                                        </g>
                                        <rect x="218.352" y="673.032" style="fill:none;stroke:#000000;stroke-width:3.1289;" width="105.35" height="167.4"/>
                                        <line style="fill:none;stroke:#000000;stroke-width:3.1289;" x1="217.414" y1="729.14" x2="324.076" y2="729.14"/>
                                        <line style="fill:none;stroke:#000000;stroke-width:3.1289;" x1="218.317" y1="784.646" x2="325.001" y2="784.646"/>
                                        <line style="fill:none;stroke:#000000;stroke-width:3.1289;" x1="217.698" y1="701.42" x2="324.359" y2="701.42"/>
                                        <line style="fill:none;stroke:#000000;stroke-width:3.1289;" x1="218.729" y1="756.73" x2="323.672" y2="756.73"/>
                                        <line style="fill:none;stroke:#000000;stroke-width:3.1289;" x1="219.205" y1="812.059" x2="323.986" y2="812.059"/>
                                        <line style="fill:none;stroke:#000000;stroke-width:3.1289;" x1="253.116" y1="672.868" x2="253.116" y2="840.453"/>
                                        <line style="fill:none;stroke:#000000;stroke-width:3.1289;" x1="288.943" y1="673.494" x2="288.943" y2="840.425"/>
                                        <g>
                                            <defs>
                                                <rect id="SVGID_31_" x="2" width="997.184" height="1064.334"/>
                                            </defs>
                                            <clipPath id="SVGID_32_">
                                                <use xlink:href="#SVGID_31_"  style="overflow:visible;"/>
                                            </clipPath>
                                            <path style="clip-path:url(#SVGID_32_);" d="M576.395,829.036c0,1.399-0.401,2.534-1.205,3.411
                                                c-0.804,0.876-1.871,1.314-3.207,1.314c-1.273,0-2.284-0.46-3.035-1.377c-0.71-0.854-1.064-1.962-1.064-3.317
                                                s0.397-2.481,1.189-3.379c0.792-0.898,1.837-1.345,3.129-1.345c1.252,0,2.262,0.447,3.035,1.345
                                                C576.01,826.586,576.395,827.7,576.395,829.036 M580.337,832.76c0-7.384-2.732-11.076-8.198-11.076
                                                c-2.231,0-4.077,0.657-5.538,1.971c-1.543,1.377-2.315,3.213-2.315,5.507c0,2.128,0.651,3.858,1.956,5.194
                                                c1.305,1.336,2.988,2.003,5.053,2.003c2.4,0,4.224-0.961,5.476-2.879c-0.041,1.167-0.094,2.075-0.156,2.722
                                                c-0.21,2.003-0.532,3.432-0.97,4.287c-0.729,1.399-1.962,2.096-3.692,2.096c-1.042,0-1.909-0.304-2.597-0.907
                                                c-0.688-0.604-1.054-1.461-1.095-2.566h-3.755c0.125,2.106,0.907,3.692,2.347,4.756c1.292,0.917,2.982,1.377,5.069,1.377
                                                C577.531,845.244,580.337,841.083,580.337,832.76 M556.557,844.806v-22.622h-3.223c-1.73,1.649-3.576,2.838-5.538,3.567v3.129
                                                c2.024-0.814,3.701-1.837,5.038-3.066v18.992H556.557z"/>
                                        </g>
                                        <rect x="641.112" y="675.842" style="fill:none;stroke:#000000;stroke-width:3.1289;" width="105.35" height="167.4"/>
                                        <line style="fill:none;stroke:#000000;stroke-width:3.1289;" x1="639.546" y1="708.028" x2="748.026" y2="708.028"/>
                                        <line style="fill:none;stroke:#000000;stroke-width:3.1289;" x1="639.627" y1="743.935" x2="745.268" y2="743.935"/>
                                        <line style="fill:none;stroke:#000000;stroke-width:3.1289;" x1="639.627" y1="778.414" x2="747.443" y2="778.414"/>
                                        <line style="fill:none;stroke:#000000;stroke-width:3.1289;" x1="639.627" y1="812.178" x2="747.443" y2="812.178"/>
                                        <line style="fill:none;stroke:#000000;stroke-width:3.1289;" x1="694.933" y1="676.123" x2="694.933" y2="843.758"/>
                                        <line style="fill:none;stroke:#000000;stroke-width:3.1289;" x1="668.561" y1="676.123" x2="668.561" y2="843.758"/>
                                        <line style="fill:none;stroke:#000000;stroke-width:3.1289;" x1="721.307" y1="676.539" x2="721.307" y2="844.124"/>
                                        <g>
                                            <defs>
                                                <rect id="SVGID_33_" x="2" width="997.184" height="1064.334"/>
                                            </defs>
                                            <clipPath id="SVGID_34_">
                                                <use xlink:href="#SVGID_33_"  style="overflow:visible;"/>
                                            </clipPath>
                                            <path style="clip-path:url(#SVGID_34_);" d="M792.654,832.81c0,5.967-1.471,8.949-4.412,8.949c-2.794,0-4.193-2.972-4.193-8.917
                                                c0-6.155,1.461-9.23,4.38-9.23C791.246,823.611,792.654,826.678,792.654,832.81 M796.44,832.529c0-3.254-0.541-5.86-1.627-7.822
                                                c-1.377-2.503-3.514-3.755-6.414-3.755c-2.879,0-5.028,1.242-6.446,3.723c-1.167,2.024-1.752,4.621-1.752,7.791
                                                c0,3.339,0.532,6.029,1.596,8.073c1.355,2.606,3.514,3.911,6.477,3.911c2.941,0,5.109-1.292,6.508-3.88
                                                C795.886,838.505,796.44,835.824,796.44,832.529 M776.54,844.075v-2.847h-11.045l3.285-2.941c2.168-1.962,3.808-3.651,4.912-5.069
                                                c1.752-2.275,2.628-4.349,2.628-6.227c0-2.024-0.742-3.567-2.222-4.631c-1.273-0.939-2.932-1.408-4.975-1.408
                                                c-2.168,0-3.952,0.532-5.35,1.596c-1.524,1.189-2.306,2.888-2.347,5.1h3.849c0-1.211,0.335-2.181,1.001-2.91
                                                c0.667-0.729,1.564-1.095,2.691-1.095c1.042,0,1.884,0.322,2.519,0.97c0.635,0.648,0.954,1.511,0.954,2.597
                                                c0,0.729-0.178,1.493-0.532,2.284c-0.648,1.461-2.262,3.451-4.85,5.976c-1.399,1.377-3.37,3.151-5.914,5.319v3.285H776.54z"/>
                                        </g>
                                        <rect x="848.424" y="675.842" style="fill:none;stroke:#000000;stroke-width:3.1289;" width="105.351" height="167.4"/>
                                        <line style="fill:none;stroke:#000000;stroke-width:3.1289;" x1="848.331" y1="698.218" x2="953.632" y2="698.218"/>
                                        <line style="fill:none;stroke:#000000;stroke-width:3.1289;" x1="849.086" y1="722.386" x2="954.386" y2="722.386"/>
                                        <line style="fill:none;stroke:#000000;stroke-width:3.1289;" x1="848.331" y1="746.552" x2="953.632" y2="746.552"/>
                                        <line style="fill:none;stroke:#000000;stroke-width:3.1289;" x1="848.332" y1="770.722" x2="953.632" y2="770.722"/>
                                        <line style="fill:none;stroke:#000000;stroke-width:3.1289;" x1="848.439" y1="794.89" x2="953.63" y2="794.89"/>
                                        <line style="fill:none;stroke:#000000;stroke-width:3.1289;" x1="849.086" y1="819.058" x2="954.386" y2="819.058"/>
                                        <line style="fill:none;stroke:#000000;stroke-width:3.1289;" x1="882.182" y1="675.639" x2="882.182" y2="843.223"/>
                                        <line style="fill:none;stroke:#000000;stroke-width:3.1289;" x1="918.008" y1="675.639" x2="918.008" y2="843.223"/>
                                        <g>
                                            <defs>
                                                <rect id="SVGID_35_" x="2" width="997.184" height="1064.334"/>
                                            </defs>
                                            <clipPath id="SVGID_36_">
                                                <use xlink:href="#SVGID_35_"  style="overflow:visible;"/>
                                            </clipPath>
                                            <path style="clip-path:url(#SVGID_36_);" d="M999.186,844.806v-22.622h-3.223c-1.73,1.649-3.576,2.838-5.538,3.567v3.129
                                                c2.024-0.814,3.702-1.837,5.038-3.066v18.992H999.186z M983.854,844.806v-2.847h-11.045l3.285-2.941
                                                c2.168-1.962,3.808-3.651,4.912-5.069c1.752-2.275,2.628-4.349,2.628-6.227c0-2.024-0.742-3.567-2.222-4.631
                                                c-1.273-0.939-2.932-1.408-4.975-1.408c-2.168,0-3.952,0.532-5.35,1.596c-1.524,1.189-2.306,2.888-2.347,5.1h3.849
                                                c0-1.211,0.335-2.181,1.001-2.91c0.667-0.729,1.564-1.095,2.691-1.095c1.042,0,1.884,0.322,2.519,0.97s0.954,1.511,0.954,2.597
                                                c0,0.729-0.178,1.492-0.532,2.284c-0.648,1.461-2.262,3.451-4.85,5.976c-1.399,1.377-3.37,3.151-5.914,5.319v3.285H983.854z"/>
                                            
                                                <rect x="4.594" y="894.009" style="clip-path:url(#SVGID_36_);fill:none;stroke:#000000;stroke-width:3.1289;" width="105.35" height="167.4"/>
                                            
                                                <line style="clip-path:url(#SVGID_36_);fill:none;stroke:#000000;stroke-width:3.1289;" x1="4.386" y1="908.996" x2="109.83" y2="908.996"/>
                                            
                                                <line style="clip-path:url(#SVGID_36_);fill:none;stroke:#000000;stroke-width:3.1289;" x1="4.548" y1="924.515" x2="109.992" y2="924.515"/>
                                            
                                                <line style="clip-path:url(#SVGID_36_);fill:none;stroke:#000000;stroke-width:3.1289;" x1="4.467" y1="940.034" x2="109.911" y2="940.034"/>
                                            
                                                <line style="clip-path:url(#SVGID_36_);fill:none;stroke:#000000;stroke-width:3.1289;" x1="4.629" y1="955.554" x2="110.073" y2="955.554"/>
                                            
                                                <line style="clip-path:url(#SVGID_36_);fill:none;stroke:#000000;stroke-width:3.1289;" x1="4.467" y1="969.949" x2="109.911" y2="969.949"/>
                                            
                                                <line style="clip-path:url(#SVGID_36_);fill:none;stroke:#000000;stroke-width:3.1289;" x1="4.629" y1="985.468" x2="110.073" y2="985.468"/>
                                            
                                                <line style="clip-path:url(#SVGID_36_);fill:none;stroke:#000000;stroke-width:3.1289;" x1="4.305" y1="1000.987" x2="109.75" y2="1000.987"/>
                                            
                                                <line style="clip-path:url(#SVGID_36_);fill:none;stroke:#000000;stroke-width:3.1289;" x1="4.467" y1="1016.507" x2="109.911" y2="1016.507"/>
                                            
                                                <line style="clip-path:url(#SVGID_36_);fill:none;stroke:#000000;stroke-width:3.1289;" x1="4.305" y1="1031.024" x2="109.75" y2="1031.024"/>
                                            
                                                <line style="clip-path:url(#SVGID_36_);fill:none;stroke:#000000;stroke-width:3.1289;" x1="4.467" y1="1046.543" x2="109.911" y2="1046.543"/>
                                            
                                                <line style="clip-path:url(#SVGID_36_);fill:none;stroke:#000000;stroke-width:3.1289;" x1="57.301" y1="1062.972" x2="57.301" y2="893.176"/>
                                            <path style="clip-path:url(#SVGID_36_);" d="M159.423,1062.331v-2.847h-11.045l3.285-2.941c2.168-1.962,3.808-3.651,4.912-5.069
                                                c1.752-2.275,2.628-4.349,2.628-6.227c0-2.024-0.742-3.567-2.222-4.631c-1.273-0.939-2.932-1.408-4.975-1.408
                                                c-2.168,0-3.952,0.532-5.35,1.596c-1.524,1.189-2.306,2.888-2.347,5.1h3.849c0-1.211,0.335-2.181,1.001-2.91
                                                c0.666-0.729,1.564-1.095,2.691-1.095c1.042,0,1.884,0.322,2.519,0.97s0.954,1.511,0.954,2.597c0,0.729-0.178,1.492-0.532,2.284
                                                c-0.648,1.461-2.262,3.451-4.85,5.976c-1.399,1.377-3.37,3.151-5.914,5.319v3.285H159.423z M140.024,1062.331v-2.847h-11.045
                                                l3.285-2.941c2.168-1.962,3.808-3.651,4.912-5.069c1.752-2.275,2.628-4.349,2.628-6.227c0-2.024-0.742-3.567-2.222-4.631
                                                c-1.273-0.939-2.932-1.408-4.975-1.408c-2.168,0-3.952,0.532-5.35,1.596c-1.524,1.189-2.306,2.888-2.347,5.1h3.849
                                                c0-1.211,0.335-2.181,1.001-2.91c0.666-0.729,1.564-1.095,2.691-1.095c1.042,0,1.884,0.322,2.519,0.97s0.954,1.511,0.954,2.597
                                                c0,0.729-0.178,1.492-0.532,2.284c-0.648,1.461-2.262,3.451-4.85,5.976c-1.399,1.377-3.37,3.151-5.914,5.319v3.285H140.024z"/>
                                            
                                                <rect x="431.008" y="895.37" style="clip-path:url(#SVGID_36_);fill:none;stroke:#000000;stroke-width:3.1289;" width="105.35" height="167.4"/>
                                        </g>
                                        <line style="fill:none;stroke:#000000;stroke-width:3.1289;" x1="430.071" y1="951.478" x2="536.732" y2="951.478"/>
                                        <line style="fill:none;stroke:#000000;stroke-width:3.1289;" x1="430.974" y1="1006.984" x2="537.658" y2="1006.984"/>
                                        <line style="fill:none;stroke:#000000;stroke-width:3.1289;" x1="430.354" y1="923.759" x2="537.016" y2="923.759"/>
                                        <line style="fill:none;stroke:#000000;stroke-width:3.1289;" x1="431.385" y1="979.07" x2="536.329" y2="979.07"/>
                                        <line style="fill:none;stroke:#000000;stroke-width:3.1289;" x1="431.862" y1="1034.398" x2="536.643" y2="1034.398"/>
                                        <g>
                                            <defs>
                                                <rect id="SVGID_37_" x="2" width="997.184" height="1064.334"/>
                                            </defs>
                                            <clipPath id="SVGID_38_">
                                                <use xlink:href="#SVGID_37_"  style="overflow:visible;"/>
                                            </clipPath>
                                            
                                                <line style="clip-path:url(#SVGID_38_);fill:none;stroke:#000000;stroke-width:3.1289;" x1="465.773" y1="895.207" x2="465.773" y2="1062.791"/>
                                            
                                                <line style="clip-path:url(#SVGID_38_);fill:none;stroke:#000000;stroke-width:3.1289;" x1="501.599" y1="895.833" x2="501.599" y2="1062.763"/>
                                            <path style="clip-path:url(#SVGID_38_);" d="M580.863,1055.874h-7.509l7.509-11.421V1055.874z M587.903,1058.534l-0.031-2.66
                                                h-3.473v-14.894h-4.381l-9.512,14.174v3.379h10.325v5.069h3.598v-5.069H587.903z M567.19,1063.602v-2.847h-11.045l3.285-2.941
                                                c2.168-1.962,3.808-3.651,4.912-5.069c1.752-2.275,2.628-4.349,2.628-6.227c0-2.024-0.742-3.567-2.222-4.631
                                                c-1.273-0.939-2.932-1.408-4.975-1.408c-2.168,0-3.952,0.532-5.35,1.596c-1.524,1.189-2.306,2.888-2.347,5.1h3.849
                                                c0-1.211,0.335-2.181,1.001-2.91c0.667-0.729,1.564-1.095,2.691-1.095c1.042,0,1.884,0.322,2.519,0.97s0.954,1.511,0.954,2.597
                                                c0,0.729-0.178,1.493-0.532,2.284c-0.648,1.461-2.262,3.451-4.85,5.976c-1.399,1.377-3.37,3.151-5.914,5.319v3.285H567.19z"/>
                                            <path style="clip-path:url(#SVGID_38_);" d="M685.535,987.617c-1.668,0-2.982-0.501-3.942-1.502
                                                c-0.961-1.001-1.439-2.337-1.439-4.005c0-1.543,0.469-2.879,1.408-4.005c0.939-1.126,2.159-1.69,3.661-1.69
                                                c2.168,0,5.444,1.918,9.825,5.757C691.127,985.802,687.954,987.617,685.535,987.617 M712.882,986.053
                                                c-0.917,1.042-2.168,1.564-3.755,1.564c-1.668,0-3.42-0.626-5.257-1.877c-0.71-0.46-2.19-1.649-4.443-3.567
                                                c2.253-2.043,3.714-3.317,4.38-3.817c1.918-1.336,3.67-2.003,5.257-2.003c1.627,0,2.901,0.541,3.817,1.627
                                                c0.917,1.086,1.377,2.462,1.377,4.13C714.259,983.697,713.799,985.011,712.882,986.053 M715.194,975.571
                                                c-1.586-1.69-3.677-2.534-6.267-2.534c-2.09,0-4.243,0.792-6.455,2.378c-1.339,0.917-3.073,2.481-5.203,4.693
                                                c-2.757-2.503-4.574-4.068-5.451-4.693c-2.215-1.543-4.409-2.315-6.583-2.315c-2.466,0-4.481,0.867-6.048,2.597
                                                c-1.564,1.73-2.35,3.849-2.35,6.352c0,2.628,0.795,4.765,2.381,6.414c1.589,1.649,3.68,2.472,6.27,2.472
                                                c2.087,0,4.218-0.751,6.392-2.253c1.796-1.461,3.592-2.919,5.388-4.38c2.256,2.128,4.055,3.63,5.391,4.506
                                                c2.171,1.417,4.346,2.128,6.518,2.128c2.506,0,4.534-0.854,6.079-2.566c1.546-1.711,2.319-3.839,2.319-6.383
                                                C717.575,979.397,716.784,977.26,715.194,975.571"/>
                                            <path style="clip-path:url(#SVGID_38_);" d="M375.549,1055.041c0-1.564-0.469-2.847-1.408-3.849
                                                c-0.854-0.939-2.043-1.542-3.567-1.815c1.292-0.291,2.337-0.876,3.129-1.752c0.876-0.939,1.314-2.065,1.314-3.379
                                                c0-1.899-0.713-3.401-2.143-4.506c-1.43-1.104-3.27-1.658-5.523-1.658c-2.043,0-3.786,0.51-5.225,1.533
                                                c-1.712,1.167-2.566,2.807-2.566,4.912h3.786c0.228-2.566,1.533-3.849,3.911-3.849c1.23,0,2.212,0.344,2.941,1.032
                                                s1.095,1.618,1.095,2.785c0,1.273-0.491,2.253-1.471,2.941c-0.835,0.585-1.899,0.876-3.191,0.876c-0.688,0-1.126-0.009-1.314-0.031
                                                v2.534c0.166-0.022,0.573-0.031,1.22-0.031c1.417,0,2.588,0.282,3.504,0.845c1.105,0.688,1.658,1.721,1.658,3.098
                                                c0,1.292-0.416,2.325-1.252,3.098s-1.899,1.158-3.191,1.158c-1.252,0-2.268-0.36-3.051-1.079c-0.782-0.72-1.183-1.705-1.205-2.957
                                                h-3.817c0,2.212,0.792,3.902,2.378,5.069c1.417,1.042,3.295,1.564,5.632,1.564c2.231,0,4.108-0.491,5.632-1.471
                                                C374.642,1058.943,375.549,1057.253,375.549,1055.041 M355.681,1061.205v-2.847h-11.045l3.285-2.941
                                                c2.168-1.962,3.808-3.651,4.912-5.069c1.752-2.275,2.628-4.349,2.628-6.227c0-2.024-0.742-3.567-2.222-4.631
                                                c-1.273-0.939-2.932-1.408-4.975-1.408c-2.168,0-3.952,0.532-5.35,1.596c-1.524,1.189-2.306,2.888-2.347,5.1h3.849
                                                c0-1.211,0.335-2.181,1.001-2.91c0.666-0.729,1.564-1.095,2.691-1.095c1.042,0,1.884,0.322,2.519,0.97
                                                c0.635,0.648,0.954,1.511,0.954,2.597c0,0.729-0.178,1.493-0.532,2.284c-0.648,1.461-2.262,3.451-4.85,5.976
                                                c-1.399,1.377-3.37,3.151-5.914,5.319v3.285H355.681z"/>
                                        </g>
                                        </svg>